<svg width="85" height="24" viewBox="0 0 85 24" fill="none" xmlns="http://www.w3.org/2000/svg">
  <path d="M12 4C7.6 4 4 7.6 4 12C4 16.4 7.6 20 12 20C16.4 20 20 16.4 20 12C20 7.6 16.4 4 12 4ZM12 17.5C8.96 17.5 6.5 15.04 6.5 12C6.5 8.96 8.96 6.5 12 6.5C15.04 6.5 17.5 8.96 17.5 12C17.5 15.04 15.04 17.5 12 17.5Z" fill="#000000"/>
  <path d="M28 8C25.8 8 24 9.8 24 12C24 14.2 25.8 16 28 16H31V18H33.5V12C33.5 9.8 31.7 8 29.5 8H28ZM28 13.5V10.5H29.5C30.3 10.5 31 11.2 31 12V13.5H28ZM43 8H35V18H37.5V14.5H43V12H37.5V10.5H43V8ZM53 8H45V18H53V15.5H47.5V14H52V11.5H47.5V10.5H53V8ZM54 8V18H56.5V8H54ZM63.5 8H57V18H59.5V14.5H63.5C65.7 14.5 67.5 12.7 67.5 10.5C67.5 9.1 66.4 8 65 8H63.5ZM59.5 10.5H63.5C64.05 10.5 64.5 10.95 64.5 11.5C64.5 12.05 64.05 12.5 63.5 12.5H59.5V10.5Z" fill="#000000"/>
</svg> 