<svg width="90" height="24" viewBox="0 0 90 24" fill="none" xmlns="http://www.w3.org/2000/svg">
  <path d="M12 4C7.58 4 4 7.58 4 12C4 16.42 7.58 20 12 20C16.42 20 20 16.42 20 12C20 7.58 16.42 4 12 4ZM12 17.5C8.96 17.5 6.5 15.04 6.5 12C6.5 8.96 8.96 6.5 12 6.5C15.04 6.5 17.5 8.96 17.5 12C17.5 15.04 15.04 17.5 12 17.5Z" fill="#FF5A5F"/>
  <path d="M14 8.5C14 9.33 13.33 10 12.5 10C11.67 10 11 9.33 11 8.5C11 7.67 11.67 7 12.5 7C13.33 7 14 7.67 14 8.5Z" fill="#FF5A5F"/>
  <path d="M16 13L13 9L9 14.5L12 15.5L16 13Z" fill="#FF5A5F"/>
  <path d="M29 8V18H31.5V8H29ZM38 8H33V18H35.5V14.5H38C40.2 14.5 42 12.7 42 10.5C42 9.1 40.9 8 39.5 8H38ZM35.5 10.5H38.5C39.05 10.5 39.5 10.95 39.5 11.5C39.5 12.05 39.05 12.5 38.5 12.5H35.5V10.5ZM51 8H43V18H45.5V14.5H49V12H45.5V10.5H51V8ZM58 8H52V18H58C60.2 18 62 16.2 62 14V12C62 9.8 60.2 8 58 8ZM58 15.5H54.5V10.5H58C58.8 10.5 59.5 11.2 59.5 12V14C59.5 14.8 58.8 15.5 58 15.5ZM68 8H63V18H65.5V14.5H68C70.2 14.5 72 12.7 72 10.5C72 9.1 70.9 8 69.5 8H68ZM65.5 10.5H68.5C69.05 10.5 69.5 10.95 69.5 11.5C69.5 12.05 69.05 12.5 68.5 12.5H65.5V10.5Z" fill="#FF5A5F"/>
</svg> 