<svg width="100" height="24" viewBox="0 0 100 24" fill="none" xmlns="http://www.w3.org/2000/svg">
  <path d="M20 12H4" stroke="#000000" stroke-width="2" stroke-linecap="round"/>
  <path d="M12 4L12 20" stroke="#000000" stroke-width="2" stroke-linecap="round"/>
  <path d="M28 8V18H30.5V8H28ZM40.5 18L37 12.5L40.2 8H37.5L35 11.5V8H32.5V18H35V14.5L37.5 18H40.5ZM49 15.5H44V18H51.5V16H49V15.5ZM44 8V10.5H49C49.8 10.5 50.5 11.2 50.5 12V13H44V15.5H49V13.5H51.5V12C51.5 9.8 49.7 8 47.5 8H44ZM61.5 8H53V18H61.5V15.5H55.5V14H61V11.5H55.5V10.5H61.5V8ZM71 8H63V18H65.5V15.5H71V13H65.5V10.5H71V8ZM74 8V18H76.5V12.5L81 18H84V8H81.5V13.5L77 8H74Z" fill="#000000"/>
</svg> 