<svg width="80" height="24" viewBox="0 0 80 24" fill="none" xmlns="http://www.w3.org/2000/svg">
  <circle cx="7" cy="12" r="3" fill="#F26207"/>
  <circle cx="17" cy="12" r="3" fill="#F26207"/>
  <path d="M12 19C8.96 19 6.5 16.54 6.5 13.5V4H8.5V13.5C8.5 15.43 10.07 17 12 17C13.93 17 15.5 15.43 15.5 13.5V4H17.5V13.5C17.5 16.54 15.04 19 12 19Z" fill="#F26207"/>
  <path d="M30.5 10.5H25V8H38.5V10.5H33V18H30.5V10.5ZM48 15.5H43V18H50.5V16H48V15.5ZM43 8V10.5H48C48.8 10.5 49.5 11.2 49.5 12V13H43V15.5H48V13.5H50.5V12C50.5 9.8 48.7 8 46.5 8H43ZM59.5 8H52V18H54.5V14.5H59V12H54.5V10.5H59.5V8ZM61 8V18H63.5V8H61ZM74 8H66V18H68.5V14.5H74V12H68.5V10.5H74V8Z" fill="#F26207"/>
</svg> 