<svg width="120" height="24" viewBox="0 0 120 24" fill="none" xmlns="http://www.w3.org/2000/svg">
  <path d="M9 8V18H11.5V8H9ZM16 8V13C16 14.1 16.9 15 18 15H20V18H22.5V15H24V12.5H22.5V12C22.5 10.9 21.6 10 20.5 10H18V8H16ZM4 8V18H6.5V8H4ZM28.5 8L25 18H27.5L28 16.5H32L32.5 18H35L31.5 8H28.5ZM28.5 14.5L30 10.5L31.5 14.5H28.5ZM36 8V18H38.5V13L42.5 18H45V8H42.5V13L38.5 8H36ZM53 15.5H48V18H55.5V16H53V15.5ZM48 8V10.5H53C53.8 10.5 54.5 11.2 54.5 12V13H48V15.5H53V13.5H55.5V12C55.5 9.8 53.7 8 51.5 8H48ZM57 8V18H59.5V8H57ZM67.5 8H61V18H63.5V14.5H66C68.2 14.5 70 12.7 70 10.5V10C70 8.9 69.1 8 68 8H67.5ZM63.5 10.5H67.5V11C67.5 11.3 67.2 11.5 67 11.5H63.5V10.5ZM75 13.5L71 8H73.5L76 11.5L78.5 8H81L77 13.5V18H75V13.5ZM87 15.5H82V18H89.5V16H87V15.5ZM82 8V10.5H87C87.8 10.5 88.5 11.2 88.5 12V13H82V15.5H87V13.5H89.5V12C89.5 9.8 87.7 8 85.5 8H82ZM91 8V18H93.5V8H91ZM102 8V10.5H97V13H100.5V15.5H97V18H102C104.2 18 106 16.2 106 14V12C106 9.8 104.2 8 102 8ZM115 8H107V18H115V15.5H109.5V14H114V11.5H109.5V10.5H115V8Z" fill="#000000"/>
</svg> 