<?xml version="1.0" encoding="UTF-8" standalone="no"?>
<svg xmlns="http://www.w3.org/2000/svg" width="120" height="40" viewBox="0 0 120 40" fill="none">
  <path d="M19.8 14.3c-1.2 0-2.1.3-2.8.8-.7.5-1.2 1.2-1.5 2.1-.3.9-.5 1.8-.5 2.8 0 1 .2 2 .5 2.8.3.9.8 1.6 1.5 2.1.7.5 1.6.8 2.8.8 1.5 0 2.6-.4 3.3-1.3.7-.9 1.1-2 1.1-3.5h-4.2v-3.2h8.4v3c0 1.7-.3 3.2-1 4.5-.7 1.3-1.6 2.3-2.9 3-1.3.7-2.9 1.1-4.7 1.1-2 0-3.7-.4-5.1-1.3-1.4-.9-2.5-2.1-3.2-3.6-.7-1.5-1.1-3.2-1.1-5.1 0-1.9.4-3.6 1.1-5.1.7-1.5 1.8-2.7 3.2-3.6 1.4-.9 3.1-1.3 5.1-1.3 1.5 0 2.9.2 4.1.7 1.2.5 2.2 1.2 3 2 .8.9 1.3 1.9 1.6 3h-4.4c-.2-.6-.6-1.1-1.1-1.5-.5-.4-1.2-.6-2.2-.6z" fill="#777"/>
  <path d="M42.5 17.7c-.3-.5-.7-.9-1.2-1.2-.5-.3-1.1-.4-1.7-.4-.9 0-1.7.2-2.4.7-.7.5-1.2 1.1-1.6 2-.4.9-.6 1.8-.6 2.9s.2 2.1.6 2.9c.4.9.9 1.5 1.6 2 .7.5 1.5.7 2.4.7.9 0 1.7-.2 2.3-.7.6-.5 1-1.1 1.3-1.9h4.4c-.3 1.2-.9 2.3-1.6 3.2-.8.9-1.7 1.7-2.9 2.2-1.2.5-2.5.8-3.9.8-1.9 0-3.5-.4-4.9-1.3-1.4-.9-2.5-2.1-3.2-3.6-.7-1.5-1.1-3.2-1.1-5s.4-3.5 1.1-5c.8-1.5 1.8-2.7 3.2-3.6 1.4-.9 3-1.3 4.9-1.3 1.2 0 2.4.2 3.4.6 1.1.4 2 1 2.8 1.7.8.7 1.4 1.6 1.8 2.5.4 1 .6 2 .6 3h-4.3c0-.7-.2-1.3-.4-1.9z" fill="#777"/>
  <path d="M60.5 17.7c-.3-.5-.7-.9-1.2-1.2-.5-.3-1.1-.4-1.7-.4-.9 0-1.7.2-2.4.7-.7.5-1.2 1.1-1.6 2-.4.9-.6 1.8-.6 2.9s.2 2.1.6 2.9c.4.9.9 1.5 1.6 2 .7.5 1.5.7 2.4.7.9 0 1.7-.2 2.3-.7.6-.5 1-1.1 1.3-1.9h4.4c-.3 1.2-.9 2.3-1.6 3.2-.8.9-1.7 1.7-2.9 2.2-1.2.5-2.5.8-3.9.8-1.9 0-3.5-.4-4.9-1.3-1.4-.9-2.5-2.1-3.2-3.6-.7-1.5-1.1-3.2-1.1-5s.4-3.5 1.1-5c.8-1.5 1.8-2.7 3.2-3.6 1.4-.9 3-1.3 4.9-1.3 1.2 0 2.4.2 3.4.6 1.1.4 2 1 2.8 1.7.8.7 1.4 1.6 1.8 2.5.4 1 .6 2 .6 3h-4.3c0-.7-.2-1.3-.4-1.9z" fill="#777"/>
  <path d="M78.3 21.5c1.2 0 2.1-.2 2.8-.7.7-.5 1-1.1 1-1.9 0-.5-.1-.9-.4-1.3-.3-.3-.6-.6-1.1-.8-.5-.2-1-.4-1.5-.5-.6-.1-1.1-.3-1.5-.4-.4-.1-.8-.3-1.1-.5-.3-.2-.4-.4-.4-.7 0-.4.2-.7.5-.9.3-.2.7-.3 1.2-.3.5 0 1 .1 1.3.4.3.3.5.7.5 1.1h3.5c0-.8-.2-1.5-.6-2.1-.4-.6-1-.9-1.7-1.2-.8-.3-1.7-.4-2.8-.4-.8 0-1.5.1-2.2.3-.7.2-1.3.6-1.7 1-.4.5-.6 1-.6 1.7 0 .5.1.9.4 1.3.2.3.6.6 1 .8.4.2.9.4 1.5.5.5.1 1 .3 1.5.4.5.1.9.3 1.2.5.3.2.5.4.5.7 0 .4-.2.6-.5.8-.3.2-.8.3-1.4.3-.6 0-1.1-.1-1.4-.4-.3-.3-.5-.7-.6-1.2h-3.7c0 .8.2 1.5.7 2.1.4.6 1 1 1.8 1.3.8.3 1.7.5 2.8.5z" fill="#777"/>
</svg> 