<svg width="152" height="24" viewBox="0 0 152 24" fill="none" xmlns="http://www.w3.org/2000/svg">
<path d="M32.4995 6.89927V7.27503C30.6038 7.37457 31.1029 8.52424 31.6007 9.79958L34.0463 16.1501L35.5932 11.6497C36.7154 8.39981 36.9153 7.52512 35.0693 7.27503V6.89927H39.4354V7.27503C38.338 7.39945 37.9891 7.84862 37.5149 8.79921L36.4671 11.2242L32.6261 20.8994C31.7025 23.2248 31.0545 24 30.0564 24C29.7285 23.9984 29.4148 23.8655 29.1851 23.6309C28.9555 23.3963 28.8289 23.0794 28.8336 22.7508C28.8336 22.2232 29.1327 21.7492 29.633 21.575C29.8826 21.7255 30.656 22.2743 30.9539 22.2743C31.5026 22.2743 31.952 20.923 32.1258 20.5485L32.9502 18.6237L29.1315 8.85023C28.6833 7.72544 28.5828 7.47535 27.3364 7.27503V6.89927H32.4995ZM64.0146 0.649489C65.9102 0.649489 67.8307 1.024 69.4769 1.99948L69.4781 6.10047H69.1044C68.6315 3.27482 66.9853 1.25045 63.991 1.25045C59.425 1.25045 56.8577 5.00057 56.8577 9.30064C56.8577 14.2253 60.623 17.6507 64.2405 17.6507C67.5092 17.6507 68.8065 15.2506 69.9288 12.5493L70.2776 12.6999C69.9682 14.2329 69.5087 15.7315 68.9058 17.1741C67.3081 17.9493 65.5862 18.2504 63.8159 18.2504C58.6032 18.2504 53.9614 15.2493 53.9614 9.59925C53.9614 5.14863 57.4288 0.649489 64.0146 0.649489ZM50.9547 0.00124423L51.229 0.100783V15.0515C51.229 17.1007 51.3284 17.3011 53.1756 17.5773V17.9518H47.3632V17.8373C46.8468 17.9754 46.3688 18.0775 45.9182 18.0775C44.8704 18.0775 44.4707 17.4765 44.3465 16.501C43.5483 17.4006 42.4508 18.2006 41.1784 18.2006C39.5831 18.2006 38.6843 16.8506 38.6843 15.3501C38.6848 14.9784 38.7353 14.6084 38.8346 14.2502L44.3465 11.7493C44.5464 9.02442 43.8475 7.89963 41.8773 7.89963C40.4998 7.89963 40.3363 8.42838 40.3261 9.34318L40.3265 9.62906C40.328 9.77765 40.3305 9.9346 40.3305 10.0994L39.0828 10.1753C38.883 10.1753 38.5093 10.2002 38.5093 9.92524C38.5093 9.24963 41.2529 6.65042 43.2739 6.65042C45.5693 6.65042 46.267 8.40106 46.267 10.4005L46.2658 14.3709C46.258 16.2224 46.2715 16.7094 48.437 17.153V17.3421C49.2427 17.051 49.2899 16.5184 49.3085 15.0527V3.62694C49.3085 2.57681 49.3334 2.25206 48.087 1.35124V1.10115L50.9547 0.00124423ZM125.408 6.65167C127.654 6.65167 129.153 8.07756 129.252 10.3259H122.017L121.916 11.5751C121.718 14.1755 123.488 16.6005 126.307 16.6005C127.605 16.6005 128.502 16.0257 129.251 15.0254L129.624 15.3003C128.676 16.9253 126.981 18.2006 125.035 18.2006C121.941 18.2006 119.797 15.6512 119.797 12.6514C119.797 9.42631 122.04 6.65167 125.408 6.65167ZM146.908 6.65042C149.902 6.65042 150.052 9.1252 150.052 10.6009V15.0515C150.052 17.1007 150.152 17.3011 152 17.5773V17.9518H146.188V17.5773C148.032 17.3035 148.108 17.0024 148.134 15.0527V12.1773C148.134 10.4267 148.206 7.95189 145.163 7.95189C144.14 7.95189 143.442 8.27664 142.62 9.02691V15.0527C142.62 17.102 142.719 17.3023 144.564 17.5773V17.9518H138.751V17.9319C138.376 18.019 138.021 18.0775 137.683 18.0775C136.632 18.0775 136.235 17.4765 136.108 16.501C135.31 17.4006 134.214 18.2006 132.941 18.2006C131.344 18.2006 130.446 16.8506 130.446 15.3501C130.446 14.9756 130.497 14.6247 130.596 14.2502L136.107 11.7493C136.308 9.02442 135.611 7.89963 133.639 7.89963C132.262 7.89963 132.098 8.42838 132.088 9.34318L132.088 9.62906C132.09 9.77765 132.092 9.9346 132.092 10.0994L130.846 10.1753C130.645 10.1753 130.271 10.2002 130.271 9.92524C130.271 9.24963 133.016 6.65042 135.036 6.65042C137.332 6.65042 138.03 8.40106 138.03 10.4005V13.9516C138.03 16.1514 137.88 16.6764 140.198 17.1517C140.646 16.8208 140.679 16.2459 140.697 15.0515L140.697 10.1074C140.696 9.18688 140.652 8.85002 139.475 8.00041V7.75032L142.443 6.65042L142.718 6.74996L142.519 8.57525C143.939 7.52512 145.312 6.65042 146.908 6.65042ZM87.212 6.65042C87.9097 6.65042 88.4845 7.10084 88.4845 7.80009C88.4845 8.47571 87.762 9.10032 87.1872 9.37529C86.7626 9.05055 86.1394 8.5006 85.5919 8.55037C83.8361 8.71615 83.6533 11.0737 83.6424 12.094L83.6425 12.3192C83.6435 12.4158 83.6454 12.4869 83.6454 12.5257L83.6458 15.2503C83.6545 17.1142 83.8246 17.3102 86.1407 17.576V17.9505H79.9049V17.8025C79.3401 17.9605 78.8212 18.0775 78.3358 18.0775C77.2855 18.0775 76.8882 17.4765 76.7616 16.501C75.9634 17.4006 74.8672 18.2006 73.5947 18.2006C71.997 18.2006 71.0994 16.8506 71.0994 15.3501C71.0994 14.9756 71.1503 14.6247 71.2496 14.2502L76.7604 11.7493C76.9615 9.02442 76.2638 7.89963 74.2924 7.89963C72.9149 7.89963 72.7514 8.42838 72.7411 9.34318L72.7416 9.62906C72.7431 9.77765 72.7456 9.9346 72.7456 10.0994L71.4992 10.1753C71.2981 10.1753 70.9244 10.2002 70.9244 9.92524C70.9244 9.24963 73.6692 6.65042 75.689 6.65042C77.9832 6.65042 78.6834 8.40106 78.6834 10.4005V13.9503C78.6834 16.1501 78.5331 16.6752 80.8534 17.1505V17.3595C81.6553 17.0734 81.7038 16.5495 81.7236 15.0515L81.7236 10.1074C81.7225 9.18688 81.6792 8.85002 80.5021 8.00041V7.75032L83.4703 6.65042L83.7447 6.74996L83.6454 9.70004H83.6963C84.2437 8.37493 85.6404 6.65042 87.212 6.65042ZM97.3818 0L97.6562 0.0995386V8.05018C98.8778 7.37581 100.401 6.65042 101.821 6.65042C104.59 6.65042 106.51 9.22474 106.51 11.8501C106.51 16.2758 102.444 18.2006 99.7021 18.2006C98.2037 18.2006 97.0814 17.8 95.7357 17.2015V3.62569H95.7345C95.7345 2.57556 95.7593 2.25082 94.5129 1.34999V1.0999L97.3818 0ZM109.351 0L109.625 0.0995386V8.05018C110.846 7.37581 112.37 6.65042 113.79 6.65042C116.558 6.65042 118.479 9.22474 118.479 11.8501C118.479 16.2758 114.413 18.2006 111.671 18.2006C110.175 18.2006 109.053 17.8 107.704 17.2015L107.703 3.62569C107.703 2.57556 107.728 2.25082 106.482 1.34999V1.0999L109.351 0ZM22.2266 6.65042C25.6182 6.65042 28.3382 8.85023 28.3382 12.3751C28.3382 15.7756 25.4941 18.2006 22.2018 18.2006C18.7841 18.2006 16.0654 16.0257 16.0654 12.4759C16.0654 9.02566 18.8847 6.65042 22.2266 6.65042ZM13.0475 4.97569C13.0475 7.07595 11.7502 8.27539 9.95382 9.07543L10.078 9.25087C11.9997 12.6265 14.3944 16.9265 18.5098 17.7764L18.4341 18.1534C15.7898 18.0264 13.8445 18.1023 12.3982 16.6018C10.7521 14.876 9.45476 12.6762 8.93088 11.6012C7.93277 9.52584 7.03521 10.1256 5.28851 9.8257V13.8508C5.28851 16.6005 5.33817 17.1007 8.75584 17.576V17.9505H0V17.576C2.99434 17.1754 3.01917 16.4264 3.09365 13.8508V6.10047H3.0949C3.0949 2.2757 2.97075 1.70087 0.176284 1.45078V1.10115L6.26304 0.900824C12.5484 0.700503 13.0475 3.77749 13.0475 4.97569ZM92.8456 6.65042L93.12 6.74996V15.0502C93.12 17.0995 93.2193 17.3011 95.0641 17.5748V17.9493H89.2529V17.576C91.1002 17.3011 91.1759 17.0012 91.1995 15.0515V10.2761C91.1995 9.22598 91.2243 8.90124 89.6763 8.00041V7.75032L92.8456 6.65042ZM22.177 7.20037C19.4831 7.20037 18.3856 9.9999 18.3856 12.3005C18.3856 14.626 19.6829 17.6507 22.3769 17.6507C24.8957 17.6507 26.0192 14.774 26.0192 12.6252C26.018 10.3259 24.8957 7.20037 22.177 7.20037ZM99.9752 7.90088C99.1261 7.90088 98.4284 8.12484 97.655 8.44958V12.8753C97.655 15.2008 97.9045 17.4255 100.797 17.4255C102.169 17.4255 104.391 16.3256 104.391 12.8504C104.391 9.84935 102.396 7.90088 99.9752 7.90088ZM111.943 7.90088C111.093 7.90088 110.396 8.12484 109.622 8.44958V12.8753C109.622 15.2008 109.872 17.4255 112.764 17.4255C114.136 17.4255 116.358 16.3256 116.358 12.8504C116.358 9.84935 114.363 7.90088 111.943 7.90088ZM76.7629 12.252L73.3948 13.9765C73.2955 14.3025 73.2198 14.6272 73.2198 14.9768C73.2198 16.0257 73.8182 16.9514 74.9677 16.9514C75.6394 16.9514 76.3135 16.501 76.7616 16.0257H76.7629V12.252ZM44.3465 12.252L40.9797 13.9765C40.8792 14.3025 40.8047 14.6272 40.8047 14.9768C40.8047 16.0257 41.4031 16.9514 42.5502 16.9514C43.2243 16.9514 43.8984 16.501 44.3465 16.0257V12.252ZM136.108 12.252L132.743 13.9765C132.641 14.3025 132.568 14.6272 132.568 14.9768C132.568 16.0257 133.166 16.9514 134.313 16.9514C134.985 16.9514 135.659 16.501 136.107 16.0257H136.108V12.252ZM124.636 7.20162C123.214 7.20162 122.364 8.60138 122.09 9.85059L126.88 9.65151C126.656 8.50184 125.958 7.20162 124.636 7.20162ZM5.29099 1.42465V9.40018C7.68572 9.37529 10.4802 8.27539 10.4802 5.49951C10.4802 2.57432 7.91042 1.39976 5.29099 1.42465ZM92.0499 0.651978C92.7476 0.651978 93.3199 1.22557 93.3199 1.92607C93.3199 2.62533 92.7476 3.20141 92.0499 3.20141C91.3522 3.20141 90.7774 2.62657 90.7774 1.92607C90.7774 1.22557 91.3522 0.651978 92.0499 0.651978Z" fill="#262626"/>
</svg>
