<svg width="125" height="14" viewBox="0 0 125 14" fill="none" xmlns="http://www.w3.org/2000/svg">
<g clip-path="url(#clip0)">
<path d="M58.2071 1.20548C58.2071 0.467434 57.7888 0 57.0016 0H51.7369C48.9077 0 47.7023 1.20548 47.7023 4.03465V9.69298C47.7023 10.8 47.2102 11.3167 46.054 11.3167H39.2148C38.4767 11.3167 38.0093 11.7841 38.0093 12.5467C38.0093 13.2602 38.4767 13.7522 39.2148 13.7522H46.0786C48.8831 13.7522 50.1624 12.5467 50.1624 9.71758V4.05924C50.1624 2.85377 50.6052 2.43555 51.7861 2.43555H57.0508C57.7888 2.43555 58.2071 1.96812 58.2071 1.20548Z" fill="#262626"/>
<path d="M16.1632 0H4.03464C1.5991 0 0 1.6237 0 4.03464V9.69298C0 12.1285 1.6237 13.7276 4.03464 13.7276H13.7276C14.5395 13.7276 15.3513 12.9158 15.3513 12.1039V9.27475C15.3513 8.58591 14.8347 8.06928 14.1704 8.06928C13.4078 8.06928 12.9404 8.53671 12.9404 9.27475V11.2921H4.03464C3.22279 11.2921 2.41094 10.4802 2.41094 9.66838V4.01004C2.41094 3.19819 3.22279 2.38634 4.03464 2.38634H16.1632C16.975 2.38634 17.7869 3.19819 17.7869 4.01004V12.4975C17.7869 13.1372 18.2789 13.703 18.9923 13.703C19.6812 13.703 20.1978 13.3094 20.1978 12.4975V4.01004C20.2224 1.6237 18.5987 0 16.1632 0Z" fill="#262626"/>
<path d="M60.6428 9.71758C60.6428 12.5467 61.8236 13.7522 64.6774 13.7522C69.6715 13.7522 74.641 13.7522 79.6351 13.7522C80.3731 13.7522 80.8405 13.2848 80.8405 12.5221C80.8405 11.8087 80.3731 11.3167 79.6351 11.3167H64.6528C63.4473 11.2921 63.0291 10.8739 63.0291 9.69298V4.03465C63.0291 2.82917 63.4719 2.41095 64.6528 2.41095H76.7813C77.913 2.41095 78.405 2.82917 78.405 4.03465C78.405 5.24012 77.9868 5.65834 76.7813 5.65834H66.6947C65.8829 5.65834 65.4892 6.07657 65.4892 6.86381C65.4892 7.65106 65.9075 8.06928 66.6947 8.06928H76.7813C79.6351 8.06928 80.816 6.86381 80.816 4.03465C80.816 1.20548 79.6105 0 76.7813 0H64.6528C61.7498 0 60.6182 1.20548 60.6182 4.03465V9.71758H60.6428Z" fill="#262626"/>
<path d="M83.2761 9.71758C83.2761 12.5467 84.4569 13.7522 87.3107 13.7522C92.3048 13.7522 95.9212 13.7522 100.891 13.7522C101.629 13.7522 102.096 13.2848 102.096 12.5221C102.096 11.8087 101.678 11.3167 100.891 11.3167H87.2861C86.0806 11.2921 85.6624 10.8739 85.6624 9.69298C85.6624 7.79867 85.6624 5.92896 85.6624 4.03465C85.6624 2.85378 86.0806 2.43555 87.2861 2.41095C92.2802 2.41095 95.872 2.41095 100.866 2.41095C101.604 2.41095 102.072 1.94352 102.072 1.20548C102.072 0.467434 101.604 0 100.866 0H87.2861C84.4323 0 83.2515 1.20548 83.2515 4.03465L83.2761 9.71758Z" fill="#262626"/>
<path d="M104.802 9.69298C104.802 12.5221 105.983 13.7522 108.837 13.7522H120.965C123.819 13.7522 125 12.5221 125 9.69298V4.03465C125 1.20548 123.819 0 120.965 0H108.837C105.983 0 104.802 1.20548 104.802 4.03465V9.69298ZM108.837 11.3167C107.631 11.2921 107.213 10.8492 107.213 9.69298V4.03465C107.213 2.85378 107.607 2.46015 108.837 2.43555H120.965C122.171 2.46015 122.589 2.87837 122.589 4.05924C122.589 5.95355 122.589 7.82327 122.589 9.69298C122.589 10.8739 122.171 11.3167 120.965 11.3413L108.837 11.3167Z" fill="#262626"/>
<path d="M42.8555 1.20548C42.8555 0.467434 42.4373 0 41.65 0H36.3853C33.5562 0 32.3507 1.20548 32.3507 4.03465V9.69298C32.3507 10.8 31.8587 11.3167 30.7024 11.3167H23.814C23.0759 11.3167 22.6577 11.7841 22.6577 12.5467C22.6577 13.2602 23.1005 13.7522 23.814 13.7522H30.7024C33.507 13.7522 34.7862 12.5467 34.7862 9.71758V4.05924C34.7862 2.85377 35.2291 2.43555 36.4099 2.43555H41.6746C42.4373 2.43555 42.8555 1.96812 42.8555 1.20548Z" fill="#262626"/>
</g>
<defs>
<clipPath id="clip0">
<rect width="125" height="13.7522" fill="white"/>
</clipPath>
</defs>
</svg>
