<?xml version="1.0" encoding="UTF-8" standalone="no"?>
<svg xmlns="http://www.w3.org/2000/svg" width="120" height="40" viewBox="0 0 120 40" fill="none">
  <path d="M28.4 23.2c0 1.5-.4 2.7-1.1 3.6-.8.9-1.8 1.4-3.2 1.4-1.3 0-2.3-.4-3.1-1.3-.7-.9-1.1-2.1-1.1-3.7 0-1.6.4-2.8 1.1-3.7.7-.9 1.8-1.3 3.1-1.3 1.4 0 2.4.5 3.2 1.4.7.9 1.1 2.1 1.1 3.6zm-2.2 0c0-1-.2-1.8-.6-2.3-.4-.5-.9-.8-1.5-.8-.7 0-1.2.2-1.5.7-.4.5-.5 1.2-.5 2.2 0 1 .2 1.8.5 2.3.3.5.8.8 1.5.8.7 0 1.2-.3 1.5-.8.4-.5.6-1.2.6-2.1z" fill="#888"/>
  <path d="M35.5 19.8c-.6-.3-1.2-.5-1.9-.5-1.5 0-2.3.9-2.3 2.8v5.8h-2.1v-10h2.1v1.4h.1c.6-1.1 1.4-1.6 2.5-1.6.4 0 .8.1 1.1.2l.5.2v1.7zM42.6 28.2c-.4.1-.9.2-1.5.2-1.7 0-2.6-.9-2.6-2.6v-5.2h-1.4v-1.7h1.4v-2.1l2.1-.7v2.8h2v1.7h-2v4.9c0 .9.3 1.3 1 1.3.3 0 .6-.1.9-.2l.1 1.6z" fill="#888"/>
  <path d="M49.8 27.9v-1.3h-.1c-.7 1-1.7 1.5-3 1.5-1 0-1.7-.3-2.3-.8-.6-.5-.9-1.2-.9-2 0-1.7 1-2.8 3.1-3.2l3.2-.5c0-1.2-.6-1.8-1.9-1.8-.8 0-1.8.4-2.9 1.1v-1.8c.4-.2.9-.4 1.4-.6.5-.1 1-.2 1.5-.2 2.6 0 3.9 1.3 3.9 4V28h-2z" fill="#888"/>
</svg> 