<svg width="515" height="145" viewBox="0 0 515 145" fill="none" xmlns="http://www.w3.org/2000/svg">
<path d="M147.021 3.5069V68.3669C147.083 69.6244 146.732 70.8676 146.021 71.9069C135.761 83.8169 125.401 95.6469 114.341 108.307C114.041 99.9569 112.701 92.7469 119.641 87.1769C122.911 84.5469 125.161 80.6869 128.171 77.6869C134.021 71.8669 138.171 65.6869 137.541 56.6869C136.841 46.8269 137.381 36.8669 137.381 25.4569C131.841 30.5269 127.111 34.7069 122.601 39.1169C121.951 39.7569 122.231 41.4869 122.301 42.7069C123.051 56.3969 118.301 67.7069 107.751 76.5369C106.247 77.974 105.346 79.9297 105.231 82.0069C105.001 91.7869 105.311 101.587 105.051 111.367C104.958 113.957 104.071 116.457 102.511 118.527C96.5712 125.837 90.2412 132.827 83.6712 140.367C76.6712 132.237 69.8612 124.587 63.3312 116.737C62.3312 115.587 62.2712 113.507 62.2612 111.847C62.1912 101.747 62.3912 91.6369 62.1612 81.5369C62.0256 79.4479 61.1123 77.4856 59.6012 76.0369C49.6012 67.3469 44.9212 56.6269 45.6012 43.3769C45.5449 41.1409 44.6654 39.0044 43.1312 37.3769C39.3412 33.4869 35.1312 30.0369 30.1312 25.6269C30.0012 28.3269 29.8612 29.8269 29.8712 31.3269C29.9812 42.2169 30.0112 53.1069 30.3512 63.9869C30.4814 66.1237 31.271 68.1676 32.6112 69.8369C37.8112 76.1669 43.0712 82.5069 48.8012 88.3569C52.3012 91.9369 53.8012 95.6969 53.2712 100.547C53.0412 102.707 53.2712 104.907 53.2712 108.337C48.1812 102.567 43.7612 97.5869 39.3712 92.5869C33.8412 86.3069 28.2712 80.0669 22.8612 73.6869C21.7112 72.3269 20.4912 70.4369 20.4812 68.7869C20.3212 47.4869 20.3712 26.1869 20.3712 3.7869C25.3712 8.1369 29.8412 11.9369 34.2012 15.8569C40.8912 21.8569 47.6112 27.8569 54.0612 34.1169C54.7433 34.8729 55.2587 35.764 55.574 36.7322C55.8892 37.7005 55.9973 38.7242 55.8912 39.7369C53.2112 53.3369 58.2612 63.3669 69.2812 71.0969C70.0654 71.7147 70.7162 72.4853 71.194 73.3619C71.6719 74.2385 71.9669 75.203 72.0612 76.1969C72.2712 86.1369 72.2712 96.0969 71.9212 106.027C71.7671 107.974 72.054 109.931 72.7603 111.753C73.4667 113.574 74.5744 115.213 76.0012 116.547C78.5912 119.057 80.8212 121.937 83.6412 125.157C89.3412 118.327 96.9512 113.387 95.6412 102.527C94.5712 93.9769 95.1812 85.1869 95.4212 76.5269C95.5075 75.5267 95.7988 74.5551 96.2771 73.6725C96.7554 72.7899 97.4104 72.0153 98.2012 71.3969C110.061 63.4669 114.491 53.1669 111.951 38.7969C111.731 37.5669 111.771 35.6769 112.511 34.9869C123.661 24.6469 134.931 14.4469 147.021 3.5069ZM260.521 82.7869H246.941L230.421 34.1169L212.421 82.7869H198.821L174.571 14.4269H190.981L206.061 61.3769L223.291 14.4269H237.661L253.781 61.3769L269.971 14.4269H284.811L260.521 82.7869ZM348.271 82.7869H333.271L327.101 67.9769H297.661L291.531 82.7869H276.531L305.661 14.4269H319.171L348.271 82.7869ZM321.041 53.3469L312.401 32.4369L303.731 53.3469H321.041ZM414.051 82.7869H397.961L386.661 60.5769H369.441V82.7869H355.441V14.4269H390.771C394.611 14.3364 398.392 15.3799 401.641 17.4269C404.731 19.4422 407.194 22.2829 408.751 25.6269C410.459 29.3504 411.303 33.4114 411.221 37.5069C411.31 41.8492 410.306 46.1441 408.301 49.9969C406.681 53.271 404.131 55.9947 400.971 57.8269L414.051 82.7869ZM390.731 45.9369C391.621 45.9553 392.503 45.7671 393.308 45.3871C394.114 45.0071 394.82 44.4457 395.371 43.7469C396.687 41.9431 397.327 39.7347 397.181 37.5069C397.317 35.2409 396.604 33.0056 395.181 31.2369C394.639 30.5646 393.956 30.0199 393.18 29.6414C392.404 29.2629 391.554 29.0599 390.691 29.0469H369.441V45.9369H390.731ZM493.161 82.7869H473.461L456.831 61.3369L440.241 82.7869H420.501L447.121 48.7869L420.501 14.4269H439.851L456.901 36.3069L474.031 14.4269H493.161L466.661 48.7569L493.161 82.7869ZM171.731 141.447H169.601V119.077C170.392 118.814 171.201 118.607 172.021 118.457C173.252 118.236 174.501 118.135 175.751 118.157C176.906 118.144 178.053 118.351 179.131 118.767C180.122 119.152 181.016 119.749 181.751 120.517C182.505 121.315 183.084 122.262 183.451 123.297C183.871 124.481 184.077 125.731 184.061 126.987C184.074 128.189 183.902 129.387 183.551 130.537C183.249 131.555 182.742 132.501 182.061 133.317C181.405 134.093 180.586 134.715 179.661 135.137C178.634 135.585 177.522 135.807 176.401 135.787C175.417 135.806 174.438 135.647 173.511 135.317C172.882 135.095 172.283 134.792 171.731 134.417V141.447ZM171.731 132.357C171.966 132.533 172.209 132.697 172.461 132.847C172.782 133.034 173.116 133.198 173.461 133.337C173.877 133.496 174.305 133.619 174.741 133.707C175.214 133.808 175.697 133.859 176.181 133.857C177.088 133.885 177.989 133.7 178.811 133.317C179.497 132.976 180.088 132.471 180.531 131.847C180.982 131.183 181.304 130.44 181.481 129.657C181.677 128.78 181.774 127.885 181.771 126.987C181.895 125.132 181.297 123.301 180.101 121.877C179.536 121.281 178.851 120.813 178.09 120.504C177.329 120.195 176.511 120.053 175.691 120.087C174.842 120.074 173.993 120.125 173.151 120.237C172.661 120.303 172.176 120.406 171.701 120.547L171.731 132.357ZM194.421 118.157C195.092 118.154 195.761 118.211 196.421 118.327C196.86 118.392 197.292 118.499 197.711 118.647L197.291 120.487C196.947 120.352 196.588 120.258 196.221 120.207C195.527 120.094 194.824 120.044 194.121 120.057C193.379 120.041 192.638 120.108 191.911 120.257C191.536 120.334 191.169 120.441 190.811 120.577V135.397H188.661V119.277C189.391 118.972 190.143 118.724 190.911 118.537C192.061 118.263 193.24 118.136 194.421 118.157ZM215.321 126.957C215.336 128.19 215.143 129.417 214.751 130.587C214.404 131.611 213.857 132.556 213.141 133.367C212.465 134.124 211.637 134.73 210.711 135.147C209.729 135.569 208.67 135.787 207.601 135.787C206.532 135.787 205.474 135.569 204.491 135.147C203.565 134.73 202.738 134.124 202.061 133.367C201.346 132.558 200.801 131.612 200.461 130.587C199.688 128.229 199.688 125.685 200.461 123.327C200.803 122.3 201.347 121.351 202.061 120.537C202.73 119.767 203.56 119.153 204.491 118.737C205.474 118.315 206.532 118.097 207.601 118.097C208.67 118.097 209.729 118.315 210.711 118.737C211.643 119.153 212.472 119.767 213.141 120.537C213.855 121.353 214.402 122.301 214.751 123.327C215.143 124.496 215.336 125.723 215.321 126.957ZM213.061 126.957C213.143 125.173 212.626 123.413 211.591 121.957C211.106 121.365 210.496 120.888 209.804 120.56C209.112 120.232 208.357 120.062 207.591 120.062C206.826 120.062 206.07 120.232 205.378 120.56C204.686 120.888 204.076 121.365 203.591 121.957C202.631 123.464 202.121 125.215 202.121 127.002C202.121 128.789 202.631 130.539 203.591 132.047C204.08 132.633 204.692 133.104 205.383 133.428C206.074 133.751 206.828 133.919 207.591 133.919C208.354 133.919 209.108 133.751 209.799 133.428C210.49 133.104 211.102 132.633 211.591 132.047C212.645 130.566 213.163 128.771 213.061 126.957ZM221.921 118.507H228.661V120.307H221.921V129.307C221.9 130.095 221.984 130.882 222.171 131.647C222.29 132.159 222.53 132.636 222.871 133.037C223.167 133.36 223.554 133.587 223.981 133.687C224.452 133.802 224.936 133.859 225.421 133.857C226.154 133.878 226.884 133.773 227.581 133.547C228.019 133.387 228.444 133.193 228.851 132.967L229.381 134.737C228.875 135.021 228.338 135.245 227.781 135.407C226.976 135.664 226.136 135.793 225.291 135.787C224.397 135.81 223.506 135.671 222.661 135.377C221.989 135.132 221.399 134.702 220.961 134.137C220.506 133.522 220.198 132.81 220.061 132.057C219.872 131.089 219.785 130.103 219.801 129.117V113.507L221.921 113.117V118.507ZM231.571 126.927C231.542 125.605 231.759 124.289 232.211 123.047C232.584 122.03 233.148 121.093 233.871 120.287C234.526 119.569 235.332 119.006 236.231 118.637C237.097 118.28 238.025 118.096 238.961 118.097C239.882 118.052 240.801 118.208 241.656 118.553C242.51 118.899 243.28 119.425 243.911 120.097C245.138 121.43 245.755 123.51 245.761 126.337V127.357H233.821C233.771 129.077 234.315 130.761 235.361 132.127C235.956 132.724 236.674 133.183 237.465 133.471C238.257 133.76 239.102 133.871 239.941 133.797C240.857 133.836 241.774 133.739 242.661 133.507C243.164 133.355 243.655 133.168 244.131 132.947L244.521 134.787C243.969 135.049 243.393 135.257 242.801 135.407C241.823 135.667 240.813 135.788 239.801 135.767C238.507 135.8 237.218 135.576 236.011 135.107C235.015 134.715 234.13 134.087 233.431 133.277C232.739 132.468 232.236 131.515 231.961 130.487C231.666 129.324 231.535 128.126 231.571 126.927ZM243.571 125.587C243.621 124.115 243.186 122.667 242.331 121.467C241.931 120.975 241.419 120.584 240.839 120.329C240.258 120.073 239.625 119.959 238.991 119.997C238.299 119.991 237.614 120.145 236.991 120.447C236.394 120.752 235.861 121.17 235.421 121.677C234.965 122.201 234.609 122.804 234.371 123.457C234.119 124.141 233.97 124.859 233.931 125.587H243.571ZM257.501 135.757C256.315 135.778 255.136 135.568 254.031 135.137C253.067 134.748 252.21 134.135 251.531 133.347C250.844 132.531 250.327 131.586 250.011 130.567C249.305 128.215 249.305 125.708 250.011 123.357C250.336 122.327 250.863 121.372 251.561 120.547C252.23 119.766 253.068 119.147 254.011 118.737C255.033 118.296 256.138 118.078 257.251 118.097C258.113 118.089 258.974 118.166 259.821 118.327C260.464 118.43 261.088 118.629 261.671 118.917L261.111 120.747C260.641 120.519 260.148 120.342 259.641 120.217C258.92 120.073 258.186 120.009 257.451 120.027C256.647 119.973 255.842 120.109 255.1 120.423C254.359 120.737 253.701 121.222 253.181 121.837C252.122 123.337 251.607 125.154 251.721 126.987C251.712 127.921 251.823 128.852 252.051 129.757C252.242 130.543 252.604 131.277 253.111 131.907C253.623 132.522 254.274 133.006 255.011 133.317C255.909 133.681 256.873 133.855 257.841 133.827C258.619 133.842 259.395 133.738 260.141 133.517C260.608 133.372 261.062 133.192 261.501 132.977L261.961 134.807C261.373 135.095 260.752 135.31 260.111 135.447C259.256 135.651 258.38 135.755 257.501 135.757ZM267.541 118.507H274.271V120.307H267.541V129.307C267.522 130.094 267.603 130.88 267.781 131.647C267.903 132.16 268.147 132.637 268.491 133.037C268.784 133.364 269.172 133.592 269.601 133.687C270.072 133.804 270.556 133.861 271.041 133.857C271.77 133.878 272.498 133.774 273.191 133.547C273.632 133.387 274.06 133.193 274.471 132.967L274.991 134.737C274.486 135.022 273.949 135.247 273.391 135.407C272.59 135.665 271.753 135.793 270.911 135.787C270.014 135.81 269.119 135.671 268.271 135.377C267.602 135.127 267.014 134.698 266.571 134.137C266.124 133.517 265.817 132.807 265.671 132.057C265.487 131.088 265.4 130.103 265.411 129.117V113.507L267.541 113.117V118.507ZM280.821 113.387C280.831 113.606 280.795 113.825 280.716 114.03C280.637 114.235 280.516 114.421 280.361 114.577C280.061 114.865 279.662 115.025 279.246 115.025C278.831 115.025 278.431 114.865 278.131 114.577C277.841 114.248 277.682 113.825 277.682 113.387C277.682 112.949 277.841 112.526 278.131 112.197C278.431 111.909 278.831 111.748 279.246 111.748C279.662 111.748 280.061 111.909 280.361 112.197C280.516 112.353 280.637 112.539 280.716 112.744C280.795 112.949 280.831 113.168 280.821 113.387ZM280.331 135.387H278.201V118.507H280.331V135.387ZM285.951 119.077C286.581 118.907 287.431 118.707 288.501 118.487C289.794 118.247 291.107 118.136 292.421 118.157C293.521 118.124 294.617 118.315 295.641 118.717C296.444 119.059 297.141 119.607 297.661 120.307C298.199 121.039 298.574 121.878 298.761 122.767C298.99 123.811 299.101 124.878 299.091 125.947V135.397H296.961V126.627C296.973 125.622 296.893 124.617 296.721 123.627C296.59 122.91 296.311 122.229 295.901 121.627C295.521 121.111 294.995 120.721 294.391 120.507C293.641 120.255 292.852 120.136 292.061 120.157C291.191 120.149 290.322 120.206 289.461 120.327C288.977 120.384 288.499 120.481 288.031 120.617V135.467H285.911L285.951 119.077ZM315.571 133.437C315.391 133.579 315.196 133.703 314.991 133.807C314.666 133.971 314.332 134.118 313.991 134.247C313.568 134.416 313.129 134.543 312.681 134.627C312.138 134.732 311.585 134.782 311.031 134.777C310.066 134.777 309.107 134.622 308.191 134.317C307.292 134.018 306.47 133.527 305.781 132.877C305.057 132.157 304.494 131.291 304.131 130.337C303.689 129.13 303.479 127.851 303.511 126.567C303.503 125.429 303.692 124.299 304.071 123.227C304.42 122.246 304.956 121.342 305.651 120.567C306.354 119.803 307.214 119.199 308.171 118.797C309.233 118.36 310.373 118.142 311.521 118.157C312.788 118.134 314.055 118.238 315.301 118.467C316.251 118.677 317.031 118.877 317.641 119.077V134.507C317.641 137.037 316.981 138.847 315.641 139.927C314.301 141.007 312.351 141.547 309.721 141.547C308.716 141.555 307.712 141.471 306.721 141.297C305.948 141.164 305.186 140.973 304.441 140.727L304.871 138.797C305.559 139.083 306.277 139.291 307.011 139.417C307.911 139.588 308.825 139.675 309.741 139.677C311.288 139.808 312.833 139.398 314.111 138.517C315.011 137.747 315.461 136.417 315.461 134.517L315.571 133.437ZM315.571 120.547C315.098 120.416 314.617 120.312 314.131 120.237C313.296 120.12 312.454 120.07 311.611 120.087C310.776 120.072 309.948 120.236 309.181 120.567C308.48 120.869 307.858 121.327 307.361 121.907C306.846 122.51 306.459 123.211 306.221 123.967C305.952 124.817 305.821 125.705 305.831 126.597C305.808 127.57 305.961 128.538 306.281 129.457C306.538 130.2 306.947 130.881 307.481 131.457C307.949 131.946 308.524 132.319 309.161 132.547C309.779 132.775 310.432 132.893 311.091 132.897C311.986 132.91 312.877 132.764 313.721 132.467C314.394 132.25 315.021 131.911 315.571 131.467V120.547ZM333.361 113.387C333.373 113.607 333.339 113.826 333.259 114.031C333.18 114.237 333.058 114.423 332.901 114.577C332.757 114.724 332.584 114.839 332.393 114.917C332.202 114.994 331.997 115.032 331.791 115.027C331.585 115.03 331.381 114.992 331.191 114.914C331 114.837 330.827 114.722 330.681 114.577C330.385 114.251 330.221 113.827 330.221 113.387C330.221 112.947 330.385 112.523 330.681 112.197C330.827 112.052 331 111.937 331.191 111.86C331.381 111.782 331.585 111.744 331.791 111.747C331.997 111.742 332.202 111.78 332.393 111.857C332.584 111.935 332.757 112.05 332.901 112.197C333.058 112.351 333.18 112.537 333.259 112.742C333.339 112.948 333.373 113.167 333.361 113.387ZM332.871 135.387H330.751V118.507H332.871V135.387ZM338.501 119.077C339.131 118.907 339.981 118.707 341.051 118.487C342.344 118.247 343.657 118.136 344.971 118.157C346.071 118.124 347.167 118.315 348.191 118.717C349.008 119.052 349.72 119.602 350.251 120.307C350.785 121.041 351.16 121.879 351.351 122.767C351.577 123.812 351.684 124.878 351.671 125.947V135.397H349.551V126.627C349.563 125.622 349.483 124.617 349.311 123.627C349.18 122.91 348.901 122.229 348.491 121.627C348.111 121.111 347.585 120.721 346.981 120.507C346.231 120.255 345.442 120.136 344.651 120.157C343.778 120.149 342.906 120.206 342.041 120.327C341.577 120.351 341.116 120.411 340.661 120.507V135.357H338.541L338.501 119.077ZM357.101 119.077C357.731 118.907 358.581 118.707 359.651 118.487C360.947 118.247 362.263 118.136 363.581 118.157C364.681 118.125 365.776 118.316 366.801 118.717C367.616 119.056 368.327 119.604 368.861 120.307C369.392 121.042 369.763 121.88 369.951 122.767C370.18 123.811 370.291 124.878 370.281 125.947V135.397H368.161V126.627C368.17 125.621 368.087 124.617 367.911 123.627C367.784 122.909 367.505 122.227 367.091 121.627C366.715 121.112 366.192 120.721 365.591 120.507C364.838 120.254 364.046 120.136 363.251 120.157C362.381 120.15 361.512 120.206 360.651 120.327C360.171 120.384 359.696 120.481 359.231 120.617V135.467H357.101V119.077ZM390.131 126.957C390.146 128.19 389.953 129.417 389.561 130.587C389.217 131.61 388.673 132.555 387.961 133.367C387.281 134.124 386.45 134.731 385.521 135.147C384.543 135.583 383.482 135.801 382.411 135.787C381.368 135.803 380.334 135.595 379.379 135.177C378.423 134.76 377.568 134.143 376.871 133.367C376.156 132.558 375.611 131.612 375.271 130.587C374.498 128.229 374.498 125.685 375.271 123.327C375.613 122.3 376.157 121.351 376.871 120.537C377.545 119.768 378.377 119.154 379.311 118.737C380.285 118.3 381.344 118.082 382.411 118.097C383.482 118.083 384.543 118.301 385.521 118.737C386.455 119.154 387.287 119.768 387.961 120.537C388.672 121.354 389.215 122.301 389.561 123.327C389.953 124.496 390.146 125.723 390.131 126.957ZM387.871 126.957C387.953 125.173 387.436 123.413 386.401 121.957C385.916 121.365 385.306 120.888 384.614 120.56C383.922 120.232 383.167 120.062 382.401 120.062C381.636 120.062 380.88 120.232 380.188 120.56C379.496 120.888 378.886 121.365 378.401 121.957C377.441 123.464 376.931 125.215 376.931 127.002C376.931 128.789 377.441 130.539 378.401 132.047C378.89 132.633 379.502 133.104 380.193 133.428C380.884 133.751 381.638 133.919 382.401 133.919C383.164 133.919 383.918 133.751 384.609 133.428C385.3 133.104 385.912 132.633 386.401 132.047C387.455 130.566 387.973 128.771 387.871 126.957ZM399.861 133.107C400.321 132.167 400.791 131.107 401.271 129.887C401.751 128.667 402.211 127.417 402.661 126.127C403.111 124.837 403.531 123.517 403.911 122.197C404.291 120.877 404.611 119.647 404.911 118.487H407.031C406.641 120.037 406.201 121.557 405.711 123.067C405.221 124.577 404.711 126.067 404.191 127.477C403.671 128.887 403.091 130.307 402.511 131.637C401.931 132.967 401.361 134.217 400.811 135.397H398.811C398.241 134.217 397.671 132.967 397.101 131.637C396.531 130.307 395.981 128.917 395.441 127.477C394.901 126.037 394.441 124.567 393.911 123.067C393.381 121.567 392.981 120.067 392.591 118.487H394.851C395.111 119.647 395.431 120.877 395.851 122.197C396.271 123.517 396.641 124.827 397.091 126.127C397.541 127.427 398.011 128.677 398.491 129.887C398.971 131.097 399.401 132.167 399.861 133.107ZM415.571 118.097C416.536 118.074 417.496 118.233 418.401 118.567C419.123 118.849 419.767 119.297 420.281 119.877C420.772 120.459 421.131 121.142 421.331 121.877C421.549 122.685 421.657 123.52 421.651 124.357V135.017C421.339 135.108 421.022 135.181 420.701 135.237C420.291 135.307 419.811 135.397 419.271 135.477C418.731 135.557 418.111 135.637 417.451 135.697C416.791 135.757 416.101 135.777 415.451 135.777C414.618 135.785 413.788 135.684 412.981 135.477C412.256 135.312 411.574 134.995 410.981 134.547C410.414 134.119 409.963 133.555 409.671 132.907C409.33 132.143 409.166 131.313 409.191 130.477C409.169 129.662 409.351 128.854 409.721 128.127C410.067 127.472 410.573 126.915 411.191 126.507C411.874 126.055 412.638 125.739 413.441 125.577C414.377 125.37 415.333 125.27 416.291 125.277H417.291C417.661 125.277 417.961 125.357 418.291 125.407L419.101 125.567C419.265 125.606 419.425 125.656 419.581 125.717V124.717C419.579 124.145 419.535 123.573 419.451 123.007C419.37 122.467 419.172 121.952 418.871 121.497C418.558 121.038 418.131 120.669 417.631 120.427C416.971 120.124 416.247 119.983 415.521 120.017C414.587 119.982 413.652 120.069 412.741 120.277C412.131 120.447 411.741 120.587 411.401 120.697L411.111 118.837C411.659 118.606 412.234 118.441 412.821 118.347C413.728 118.174 414.649 118.091 415.571 118.097ZM415.771 133.857C416.601 133.857 417.321 133.857 417.941 133.777C418.561 133.697 419.091 133.647 419.531 133.567V127.567C419.16 127.414 418.775 127.296 418.381 127.217C417.673 127.08 416.952 127.02 416.231 127.037C415.682 127.039 415.134 127.079 414.591 127.157C414.043 127.224 413.511 127.39 413.021 127.647C412.553 127.881 412.149 128.224 411.841 128.647C411.515 129.163 411.355 129.767 411.381 130.377C411.366 130.928 411.475 131.475 411.701 131.977C411.899 132.383 412.203 132.729 412.581 132.977C412.998 133.251 413.463 133.444 413.951 133.547C414.545 133.717 415.155 133.821 415.771 133.857ZM429.071 118.507H435.811V120.307H429.071V129.307C429.055 130.094 429.139 130.881 429.321 131.647C429.44 132.159 429.68 132.636 430.021 133.037C430.317 133.36 430.704 133.587 431.131 133.687C431.602 133.802 432.086 133.859 432.571 133.857C433.304 133.879 434.034 133.774 434.731 133.547C435.171 133.385 435.599 133.191 436.011 132.967L436.531 134.737C436.025 135.021 435.488 135.245 434.931 135.407C434.126 135.664 433.286 135.793 432.441 135.787C431.547 135.809 430.656 135.67 429.811 135.377C429.139 135.132 428.549 134.702 428.111 134.137C427.656 133.522 427.348 132.81 427.211 132.057C427.027 131.088 426.94 130.103 426.951 129.117V113.507L429.071 113.117V118.507ZM442.351 113.387C442.363 113.607 442.329 113.826 442.249 114.031C442.17 114.237 442.048 114.423 441.891 114.577C441.747 114.724 441.574 114.839 441.383 114.917C441.192 114.994 440.987 115.032 440.781 115.027C440.575 115.031 440.371 114.993 440.18 114.916C439.989 114.838 439.816 114.723 439.671 114.577C439.375 114.251 439.211 113.827 439.211 113.387C439.211 112.947 439.375 112.523 439.671 112.197C439.816 112.051 439.989 111.935 440.18 111.858C440.371 111.781 440.575 111.743 440.781 111.747C440.987 111.742 441.192 111.78 441.383 111.857C441.574 111.935 441.747 112.05 441.891 112.197C442.048 112.351 442.17 112.537 442.249 112.742C442.329 112.948 442.363 113.167 442.351 113.387ZM441.861 135.387H439.741V118.507H441.861V135.387ZM461.901 126.957C461.916 128.19 461.723 129.417 461.331 130.587C460.991 131.612 460.447 132.558 459.731 133.367C459.034 134.143 458.179 134.76 457.223 135.177C456.268 135.595 455.234 135.803 454.191 135.787C453.12 135.802 452.059 135.584 451.081 135.147C450.152 134.731 449.321 134.124 448.641 133.367C447.929 132.555 447.385 131.61 447.041 130.587C446.281 128.227 446.281 125.687 447.041 123.327C447.39 122.289 447.94 121.331 448.661 120.507C449.335 119.738 450.167 119.124 451.101 118.707C452.082 118.285 453.138 118.067 454.206 118.067C455.274 118.067 456.33 118.285 457.311 118.707C458.245 119.124 459.077 119.738 459.751 120.507C460.465 121.321 461.009 122.27 461.351 123.297C461.74 124.477 461.926 125.715 461.901 126.957ZM459.651 126.957C459.733 125.173 459.216 123.413 458.181 121.957C457.696 121.365 457.086 120.888 456.394 120.56C455.702 120.232 454.947 120.062 454.181 120.062C453.416 120.062 452.66 120.232 451.968 120.56C451.276 120.888 450.666 121.365 450.181 121.957C449.221 123.464 448.711 125.215 448.711 127.002C448.711 128.789 449.221 130.539 450.181 132.047C450.67 132.633 451.282 133.104 451.973 133.428C452.664 133.751 453.418 133.919 454.181 133.919C454.944 133.919 455.698 133.751 456.389 133.428C457.08 133.104 457.692 132.633 458.181 132.047C459.239 130.568 459.761 128.772 459.661 126.957H459.651ZM466.511 119.077C467.151 118.907 468.001 118.707 469.071 118.487C470.364 118.246 471.677 118.136 472.991 118.157C474.091 118.124 475.187 118.315 476.211 118.717C477.028 119.052 477.74 119.602 478.271 120.307C478.805 121.041 479.18 121.879 479.371 122.767C479.592 123.812 479.699 124.878 479.691 125.947V135.397H477.571V126.627C477.585 125.621 477.502 124.616 477.321 123.627C477.197 122.908 476.917 122.226 476.501 121.627C476.125 121.112 475.602 120.721 475.001 120.507C474.248 120.254 473.456 120.136 472.661 120.157C471.791 120.15 470.922 120.206 470.061 120.327C469.59 120.35 469.122 120.41 468.661 120.507V135.357H466.531L466.511 119.077ZM488.591 133.887C489.624 133.922 490.651 133.716 491.591 133.287C491.973 133.104 492.291 132.811 492.505 132.446C492.719 132.08 492.819 131.659 492.791 131.237C492.803 130.836 492.728 130.436 492.571 130.067C492.415 129.717 492.174 129.411 491.871 129.177C491.472 128.877 491.039 128.625 490.581 128.427L488.581 127.577C487.951 127.317 487.351 127.047 486.781 126.777C486.24 126.51 485.736 126.173 485.281 125.777C484.846 125.423 484.489 124.984 484.231 124.487C483.956 123.917 483.822 123.289 483.841 122.657C483.824 122.018 483.955 121.385 484.224 120.805C484.493 120.226 484.893 119.716 485.391 119.317C486.622 118.408 488.133 117.958 489.661 118.047C490.623 118.028 491.583 118.125 492.521 118.337C493.065 118.468 493.597 118.645 494.111 118.867L493.661 120.807C493.391 120.677 492.951 120.507 492.331 120.287C491.445 120.031 490.523 119.92 489.601 119.957C489.144 119.955 488.687 120.005 488.241 120.107C487.844 120.194 487.465 120.35 487.121 120.567C486.804 120.766 486.534 121.032 486.331 121.347C486.13 121.703 486.03 122.108 486.041 122.517C486.027 122.926 486.116 123.332 486.301 123.697C486.49 124.041 486.753 124.338 487.071 124.567C487.459 124.843 487.874 125.078 488.311 125.267L489.991 125.987C490.651 126.247 491.271 126.507 491.871 126.777C492.444 127.037 492.978 127.374 493.461 127.777C493.918 128.155 494.296 128.621 494.571 129.147C494.876 129.768 495.024 130.455 495.001 131.147C495.039 131.823 494.9 132.498 494.598 133.104C494.297 133.711 493.843 134.229 493.281 134.607C491.873 135.466 490.238 135.878 488.591 135.787C487.445 135.827 486.3 135.699 485.191 135.407C484.656 135.251 484.132 135.061 483.621 134.837L484.171 132.907C484.309 132.991 484.452 133.065 484.601 133.127C484.821 133.217 485.111 133.327 485.481 133.447C485.915 133.586 486.36 133.689 486.811 133.757C487.4 133.851 487.995 133.895 488.591 133.887Z" fill="black"/>
</svg>
