<svg width="1200" height="800" viewBox="0 0 1200 800" fill="none" xmlns="http://www.w3.org/2000/svg">
<path d="M443.68 504.959C435.728 512.116 427.776 517.549 419.957 521.128C412.138 524.706 404.318 526.429 396.499 526.429C384.041 526.429 373.571 522.851 365.354 515.562C357.005 508.405 352.896 499.26 352.896 488.393C352.896 473.549 359.523 462.417 372.643 455.127C385.897 447.706 405.644 443.995 432.017 443.995H437.584V427.429C437.584 407.947 428.439 398.139 410.282 398.139C399.547 398.139 389.74 401.85 380.728 409.139L379.137 422.525H364.029V397.212C382.981 389.79 400.475 385.946 416.379 385.946C448.451 385.946 464.487 399.332 464.487 426.103V485.875C464.487 502.574 468.993 510.79 478.005 510.79C479.728 510.79 481.849 510.525 484.499 509.863L486.222 522.983C479.728 525.104 473.897 526.031 468.861 526.031C455.608 526.429 447.126 519.272 443.68 504.959ZM437.451 498.333V456.32H431.09C414.523 456.32 402.065 458.706 393.716 463.477C385.366 468.248 381.258 475.537 381.258 485.212C381.258 492.236 383.776 498.067 388.68 502.574C393.716 507.212 399.945 509.465 407.499 509.465C411.74 509.465 416.379 508.537 421.282 506.682C426.318 504.959 431.752 502.176 437.451 498.333ZM576.343 508.935C570.247 511.453 564.946 512.778 560.307 512.778C553.15 512.778 547.717 510.393 544.138 505.754C540.56 501.116 538.705 494.092 538.705 484.814V403.043H576.343V389.392H538.705V359.043L511.801 365.139V389.392H491.656V403.043H511.801V481.501C511.801 497.007 515.379 508.272 522.536 515.562C529.692 522.851 540.825 526.429 556.066 526.429C562.958 526.429 569.717 525.104 576.343 522.586V508.935ZM711.26 517.417C694.163 523.513 678.657 526.562 664.476 526.562C642.874 526.562 625.38 519.935 611.994 506.549C598.476 493.296 591.717 476.067 591.717 454.995C591.717 434.85 597.813 418.284 609.874 405.561C621.934 392.705 637.572 386.344 656.524 386.344C674.018 386.344 687.537 391.778 697.079 402.513C706.488 413.248 711.26 428.754 711.26 448.766V453.272H620.078C620.078 470.899 624.319 484.814 632.801 494.754C641.283 504.694 653.211 509.73 668.32 509.73C682.898 509.73 697.211 506.152 711.26 499.128V517.417ZM621.669 441.079H682.766V438.031C682.766 411.657 673.488 398.404 654.934 398.404C644.862 398.404 636.91 401.983 631.476 409.139C626.042 416.163 622.729 426.898 621.669 441.079ZM737.633 516.622V486.935H754.332V502.176C760.429 506.284 766.26 509.333 771.959 511.321C777.658 513.441 783.224 514.369 788.525 514.369C797.14 514.369 804.031 512.381 809.465 508.272C814.899 504.164 817.549 498.995 817.549 492.501C817.549 482.694 809.73 475.14 794.091 469.573L780.441 464.67C752.477 454.862 738.561 441.079 738.561 423.585C738.561 412.718 743.332 403.706 752.874 396.681C762.417 389.525 774.477 386.079 789.188 386.079C796.477 386.079 803.899 386.742 811.32 387.934C818.742 389.127 826.296 391.115 833.983 393.633V422.657H817.284V407.284C812.381 404.236 807.477 401.983 802.706 400.392C797.935 398.934 793.296 398.139 788.658 398.139C781.633 398.139 775.67 400.127 770.898 404.103C766.127 408.079 763.742 412.85 763.742 418.682C763.742 423.983 765.995 428.356 770.236 431.802C774.609 435.248 782.959 439.356 795.417 443.995L807.875 448.633C821.525 453.67 831.067 458.971 836.501 464.537C841.935 469.971 844.586 477.128 844.586 485.742C844.586 497.67 839.417 507.477 828.947 515.031C818.477 522.586 804.826 526.297 787.995 526.297C779.248 526.297 770.633 525.501 762.284 523.778C753.669 522.321 745.453 519.935 737.633 516.622ZM344.282 366.597L295.908 524.839H281.992L243.691 402.513L204.329 524.839H191.209L150.124 366.597H138.462V354.537H195.847V366.597H177.558L206.052 476.067L236.667 379.983L228.582 354.537H256.546L294.848 477.128L328.643 366.597H308.499V354.537H355.945V366.597H344.282Z" fill="#00788A"/>
<path d="M756.453 354.537C756.453 354.537 773.151 340.621 805.489 325.247C730.344 278.862 690.717 302.85 756.453 354.537Z" fill="url(#paint0_radial_1_8)"/>
<path d="M727.826 303.247C743.73 293.44 796.344 309.079 859.694 366.729C859.694 366.729 962.936 281.38 1061.41 291.319C968.634 268.922 794.356 262.163 727.826 303.247Z" fill="url(#paint1_radial_1_8)"/>
<path d="M1061.54 291.319C956.176 271.705 857.971 300.199 805.489 325.247C767.718 301.922 738.959 296.356 727.826 303.247C794.356 262.163 968.634 268.922 1061.54 291.319Z" fill="url(#paint2_radial_1_8)"/>
<defs>
<radialGradient id="paint0_radial_1_8" cx="0" cy="0" r="1" gradientUnits="userSpaceOnUse" gradientTransform="translate(797.562 315.645) scale(65.4861 65.4861)">
<stop stop-color="#39B54A"/>
<stop offset="1" stop-color="#CBDB2A"/>
</radialGradient>
<radialGradient id="paint1_radial_1_8" cx="0" cy="0" r="1" gradientUnits="userSpaceOnUse" gradientTransform="translate(903.47 767.921) scale(491.989 491.989)">
<stop offset="0.841" stop-color="#005361"/>
<stop offset="0.865" stop-color="#005C6B"/>
<stop offset="0.929" stop-color="#007082"/>
<stop offset="0.963" stop-color="#00788A"/>
</radialGradient>
<radialGradient id="paint2_radial_1_8" cx="0" cy="0" r="1" gradientUnits="userSpaceOnUse" gradientTransform="translate(901.81 876.524) scale(604.258 604.258)">
<stop offset="0.933" stop-color="#005361"/>
<stop offset="0.995" stop-color="#00788A"/>
</radialGradient>
</defs>
</svg>
